<?xml version="1.0" encoding="UTF-8"?>
<svg xmlns="http://www.w3.org/2000/svg" viewBox="0 0 170.65 312.24">
  <defs>
    
  </defs>
  <g>
    <g>
      <path fill="none" stroke="#000" stroke-linecap="round" stroke-linejoin="round" stroke-width="4" d="M107.02,48.66c-1.63-10.2-8.86-18.11-18.06-21.09-.06-.62-.14-1.24-.24-1.86-1.72-10.76-8.42-18.63-14.98-17.59s-10.48,10.61-8.77,21.37c.09.59.21,1.18.33,1.75-7.92,5.68-12.41,15.51-10.77,25.78,2.31,14.49,15.93,24.36,30.42,22.05,14.49-2.31,24.36-15.93,22.05-30.42Z"/>
      <path fill="none" stroke="#000" stroke-linecap="round" stroke-linejoin="round" stroke-width="4" d="M131.12,106.82l-5.65-8.1c-9.61-12.01-28.56-10.99-28.56-10.99h-43.93"/>
      <path fill="none" stroke="#000" stroke-linecap="round" stroke-linejoin="round" stroke-width="4" d="M144.23,152.43l16.92,7.82c4.04,1.87,8.44-1.8,7.33-6.11l-10.12-39.29"/>
      <path fill="none" stroke="#000" stroke-linecap="round" stroke-linejoin="round" stroke-width="4" d="M138.53,223.53l4.23-27.67c.54-2.32.83-7.62.83-10.11,0-14.68-6.46-28.42-6.46-28.42"/>
      <path fill="none" stroke="#000" stroke-linecap="round" stroke-linejoin="round" stroke-width="4" d="M130.35,271.94l-1.7,16.23c3.05,2.22,5.04,5.81,5.04,9.87,0,6.74-5.46,12.2-12.2,12.2h-6.69c-7.07.03-12.74-6.11-12.16-13.15-.01-.08.87-11.06,2.07-25.93h-26.3c-6.42,17.62-11.26,30.9-11.32,31.06-1.8,4.94-6.49,8.01-11.46,8.02h-7.65c-15.64-.62-16.16-22.23-1.57-24.26l30.57-110.86s30.32,4.42,51.76-12.36"/>
      <path fill="none" stroke="#000" stroke-linecap="round" stroke-linejoin="round" stroke-width="4" d="M138.53,223.53l16.38,31.93c1.74,3.4.08,7.55-3.52,8.81l-12.14,4.23"/>
      <polyline fill="none" stroke="#000" stroke-linecap="round" stroke-linejoin="round" stroke-width="4" points="38.74 129.82 56.06 118.72 77.23 164.78"/>
      <path fill="none" stroke="#000" stroke-linecap="round" stroke-linejoin="round" stroke-width="4" d="M34.28,81.75h-8.6c-3.03,0-5.87,1.47-7.62,3.95l-14.37,20.35c-1.55,2.2-2.02,4.9-1.46,7.42v27.21c0,4.47,4.65,7.43,8.7,5.52l9.25-5.9"/>
      <path fill="none" stroke="#000" stroke-linecap="round" stroke-linejoin="round" stroke-width="4" d="M139.69,121.74v-16.36c0-2.5,1.01-4.9,2.79-6.66,1.79-1.76,4.2-2.72,6.71-2.67l8.9.16c5.15.09,9.26,4.34,9.16,9.5-.09,4.95-4.02,8.94-8.9,9.16"/>
      <g>
        <path fill="none" stroke="#000" stroke-linecap="round" stroke-linejoin="round" stroke-width="4" d="M78.59,104.17c-3.17.62-5.24,3.71-4.62,6.88.78,3.97,4.63,6.55,8.6,5.77,4.96-.98,8.18-5.79,7.2-10.75l-3.15-17.16"/>
        <path fill="none" stroke="#000" stroke-linecap="round" stroke-linejoin="round" stroke-width="4" d="M99.55,100.32c3.19-.54,6.22,1.6,6.76,4.79.68,3.99-2,7.77-5.99,8.45-4.98.85-9.7-2.5-10.55-7.49l-3.15-17.16"/>
      </g>
      <path fill="none" stroke="#000" stroke-linecap="round" stroke-linejoin="round" stroke-width="4" d="M34.28,81.75c5.15,0,9.33,4.18,9.33,9.33s-4.18,9.33-9.33,9.33h-5.23"/>
      <rect fill="none" stroke="#000" stroke-linecap="round" stroke-linejoin="round" stroke-width="4" x="146.1" y="74.93" width="13.15" height="13.15"/>
      <line fill="none" stroke="#000" stroke-linecap="round" stroke-linejoin="round" stroke-width="4" x1="137.14" y1="157.33" x2="125.18" y2="131.75"/>
      <polyline fill="none" stroke="#000" stroke-linecap="round" stroke-linejoin="round" stroke-width="4" points="45.11 28 29.23 43.88 13.35 28"/>
      <line fill="none" stroke="#000" stroke-linecap="round" stroke-linejoin="round" stroke-width="4" x1="29.23" y1="2" x2="29.23" y2="72.2"/>
      <line fill="none" stroke="#000" stroke-linecap="round" stroke-linejoin="round" stroke-width="4" x1="29.23" y1="110.04" x2="29.23" y2="308.64"/>
      <g>
        <line fill="none" stroke="#000" stroke-linecap="round" stroke-linejoin="round" stroke-width="4" x1="152.68" y1="49.67" x2="152.68" y2="63.22"/>
        <line fill="none" stroke="#000" stroke-linecap="round" stroke-linejoin="round" stroke-width="4" x1="140.95" y1="69.99" x2="152.68" y2="63.22"/>
        <line fill="none" stroke="#000" stroke-linecap="round" stroke-linejoin="round" stroke-width="4" x1="164.42" y1="69.99" x2="152.68" y2="63.22"/>
      </g>
    </g>
  </g>
</svg>