<?xml version="1.0" encoding="UTF-8"?>
<svg xmlns="http://www.w3.org/2000/svg" viewBox="0 0 145.08 220.74">
  <defs>
    
  </defs>
  <g>
    <g>
      <path fill="none" stroke="#000" stroke-linecap="round" stroke-linejoin="round" stroke-width="4" d="M87.19,19.19c.12-.76.23-1.52.23-2.31,0-8.22-6.67-14.88-14.89-14.88s-14.89,6.66-14.89,14.88c0,.79.11,1.55.23,2.31-10.22,5.73-16.76,17.27-15.11,30.16s11.55,23.45,24.63,25.61c18.84,3.12,35.14-11.33,35.14-29.59,0-11.25-6.2-21.04-15.36-26.18Z"/>
      <path fill="none" stroke="#000" stroke-linecap="round" stroke-linejoin="round" stroke-width="4" d="M19.81,177.74c-10.37,1.41-18.3,10.52-17.79,21.39.52,11.08,10.07,19.61,21.17,19.61h99.56c11.25-.17,20.33-9.32,20.33-20.61,0-10.46-7.8-19.06-17.9-20.39"/>
      <g>
        <path fill="none" stroke="#000" stroke-linecap="round" stroke-linejoin="round" stroke-width="4" d="M108.32,123.78l.02,23.63c0,2.23-1.81,4.05-4.04,4.05h-22.63c-5.03,0-9.11,4.08-9.11,9.11h0c0,4.86,3.94,8.81,8.81,8.81h33.88c6.11,0,11.06-4.96,11.05-11.07v-37.16c0-20.12-16.31-36.43-36.43-36.43h-34.65c-20.04,0-36.43,16.39-36.43,36.43v30.47c0,9.81,7.95,17.76,17.76,17.76h.34c9.81,0,17.76-7.95,17.76-17.76v-30.8c0-4.89-3.96-8.85-8.85-8.85h0c-5.03,0-9.11,4.08-9.11,9.12l.02,30.29"/>
        <path fill="none" stroke="#000" stroke-linecap="round" stroke-linejoin="round" stroke-width="4" d="M93.24,143.53c2.28-2.21,3.71-5.28,3.71-8.7,0-5.1-3.13-9.46-7.57-11.27.58-1.15.79-2.52.27-4.01-.63-1.8-2.27-3.17-4.16-3.43-3.18-.43-5.89,2.03-5.89,5.13,0,.83.22,1.61.57,2.31-4.44,1.82-7.57,6.18-7.57,11.27,0,3.39,1.4,6.43,3.63,8.63"/>
      </g>
    </g>
  </g>
</svg>